<mxfile host="app.diagrams.net" modified="2024-04-24T16:45:00.000Z" agent="Mozilla/5.0" version="21.7.5" etag="security-model-etag" type="device">
  <diagram id="security-model" name="Модель безопасности">
    <mxGraphModel dx="1200" dy="800" grid="1" gridSize="10" guides="1" tooltips="1" connect="1" arrows="1" fold="1" page="1" pageScale="1" pageWidth="827" pageHeight="1169" math="0" shadow="0">
      <root>
        <mxCell id="0"/>
        <mxCell id="1" parent="0"/>
        
        <!-- Конфиденциальность -->
        <mxCell id="conf" value="Конфиденциальность" style="rounded=1;whiteSpace=wrap;html=1;fillColor=#E3F2FD;strokeColor=#1976D2;" vertex="1" parent="1">
          <mxGeometry x="40" y="40" width="220" height="60" as="geometry"/>
        </mxCell>
        <mxCell id="conf_desc" value="Аутентификация, авторизация, SSL/TLS, ограничение IP" style="text;strokeColor=none;fillColor=none;align=left;verticalAlign=top;spacingLeft=8;spacingTop=4;" vertex="1" parent="conf">
          <mxGeometry y="40" width="220" height="20" as="geometry"/>
        </mxCell>

        <!-- Целостность -->
        <mxCell id="int" value="Целостность" style="rounded=1;whiteSpace=wrap;html=1;fillColor=#E8F5E9;strokeColor=#388E3C;" vertex="1" parent="1">
          <mxGeometry x="320" y="40" width="220" height="60" as="geometry"/>
        </mxCell>
        <mxCell id="int_desc" value="Транзакции, ограничения, логирование, контроль изменений" style="text;strokeColor=none;fillColor=none;align=left;verticalAlign=top;spacingLeft=8;spacingTop=4;" vertex="1" parent="int">
          <mxGeometry y="40" width="220" height="20" as="geometry"/>
        </mxCell>

        <!-- Доступность -->
        <mxCell id="avail" value="Доступность" style="rounded=1;whiteSpace=wrap;html=1;fillColor=#FFF3E0;strokeColor=#F57C00;" vertex="1" parent="1">
          <mxGeometry x="600" y="40" width="220" height="60" as="geometry"/>
        </mxCell>
        <mxCell id="avail_desc" value="Масштабирование, резервное копирование, отказоустойчивость" style="text;strokeColor=none;fillColor=none;align=left;verticalAlign=top;spacingLeft=8;spacingTop=4;" vertex="1" parent="avail">
          <mxGeometry y="40" width="220" height="20" as="geometry"/>
        </mxCell>

        <!-- Угрозы -->
        <mxCell id="threats" value="Основные угрозы: несанкционированный доступ, потеря данных, сбои оборудования, DDoS" style="rounded=1;whiteSpace=wrap;html=1;fillColor=#FFEBEE;strokeColor=#C62828;" vertex="1" parent="1">
          <mxGeometry x="320" y="160" width="500" height="60" as="geometry"/>
        </mxCell>

        <!-- Стрелки -->
        <mxCell id="arrow1" style="edgeStyle=orthogonalEdgeStyle;endArrow=block;endFill=1;strokeColor=#1976D2;" edge="1" parent="1" source="conf" target="threats">
          <mxGeometry relative="1" as="geometry"/>
        </mxCell>
        <mxCell id="arrow2" style="edgeStyle=orthogonalEdgeStyle;endArrow=block;endFill=1;strokeColor=#388E3C;" edge="1" parent="1" source="int" target="threats">
          <mxGeometry relative="1" as="geometry"/>
        </mxCell>
        <mxCell id="arrow3" style="edgeStyle=orthogonalEdgeStyle;endArrow=block;endFill=1;strokeColor=#F57C00;" edge="1" parent="1" source="avail" target="threats">
          <mxGeometry relative="1" as="geometry"/>
        </mxCell>
      </root>
    </mxGraphModel>
  </diagram>
</mxfile> 